<svg width="60" height="61" viewBox="0 0 60 61" fill="none" xmlns="http://www.w3.org/2000/svg">
<path d="M30 0.336426C46.56 0.336426 60 13.7764 60 30.3364C60 46.8964 46.56 60.3364 30 60.3364C13.44 60.3364 0 46.8964 0 30.3364C0 13.7764 13.44 0.336426 30 0.336426ZM30 6.33643C16.755 6.33643 6 17.0914 6 30.3364C6 43.5814 16.755 54.3364 30 54.3364C43.245 54.3364 54 43.5814 54 30.3364C54 17.0914 43.245 6.33643 30 6.33643ZM30 12.3364C38.283 12.3364 45 20.3944 45 30.3364C45 40.2784 38.283 48.3364 30 48.3364C23.469 48.3364 17.913 43.3264 15.855 36.3364L22.206 36.3394C23.76 39.9244 26.67 42.3364 30 42.3364C34.971 42.3364 39 36.9664 39 30.3364C39 23.7064 34.971 18.3364 30 18.3364C26.67 18.3364 23.76 20.7514 22.203 24.3364H27L19.5 33.3364L12 24.3364H15.852C17.913 17.3464 23.469 12.3364 30 12.3364Z" fill="white" fill-opacity="0.6"/>
</svg>
