<svg width="176" height="144" viewBox="0 0 176 144" fill="none" xmlns="http://www.w3.org/2000/svg">
<g filter="url(#filter0_d_32_143)">
<path d="M78.3814 72V8H82.0299H85.6783V72V136H82.0299H78.3814V72ZM66.4411 71.4615V30.7301L70.2554 31.0292L74.0697 31.3284L74.243 71.7627L74.4163 112.195H70.4288H66.4412L66.4411 71.4615ZM89.8168 71.7607L89.9901 31.3264L93.8044 31.0272L97.6187 30.7281V71.4595V112.191H93.6311H89.6436L89.8168 71.7607ZM43.2238 72V42.7283H46.8723H50.5207V72V101.272H46.8723H43.2238V72ZM101.599 72V48.6337H105.591H109.583L109.405 71.7028L109.227 94.772L105.413 95.0711L101.599 95.3703V72ZM136.756 72V48.6337H140.749H144.741L144.563 71.7028L144.385 94.772L140.571 95.0711L136.756 95.3703L136.756 72ZM31.2835 72V54.6368H35.2636H39.2437V72V89.3652H35.2636H31.2835V72ZM54.5008 72V54.6368H58.4809H62.461V72V89.3652H58.4809H54.5008V72ZM113.539 72V54.6368H117.187H120.836V72V89.3652H117.187H113.539V72ZM148.697 72V57.6125H152.345H155.994V72V86.3875H152.345H148.697V72ZM19.3432 72V60.5901H23.3233H27.3034V72V83.4099H23.3233H19.3432V72ZM124.816 72V60.5901H128.796H132.776V72V83.4099H128.796H124.816V72ZM8.19897 71.7607L8.39791 66.0547H11.7147H15.0314L15.2303 71.7607L15.4293 77.4666H11.7146H8L8.19897 71.7607ZM160.106 71.7607L160.305 66.0547H163.954H167.602L167.801 71.7607L168 77.4666H163.954H159.907L160.106 71.7607Z" fill="url(#paint0_linear_32_143)"/>
</g>
<defs>
<filter id="filter0_d_32_143" x="0" y="0" width="176" height="144" filterUnits="userSpaceOnUse" color-interpolation-filters="sRGB">
<feFlood flood-opacity="0" result="BackgroundImageFix"/>
<feColorMatrix in="SourceAlpha" type="matrix" values="0 0 0 0 0 0 0 0 0 0 0 0 0 0 0 0 0 0 127 0" result="hardAlpha"/>
<feOffset/>
<feGaussianBlur stdDeviation="4"/>
<feComposite in2="hardAlpha" operator="out"/>
<feColorMatrix type="matrix" values="0 0 0 0 1 0 0 0 0 0 0 0 0 0 0.606061 0 0 0 1 0"/>
<feBlend mode="normal" in2="BackgroundImageFix" result="effect1_dropShadow_32_143"/>
<feBlend mode="normal" in="SourceGraphic" in2="effect1_dropShadow_32_143" result="shape"/>
</filter>
<linearGradient id="paint0_linear_32_143" x1="88" y1="8" x2="88" y2="136" gradientUnits="userSpaceOnUse">
<stop stop-color="#FF008C"/>
<stop offset="1" stop-color="#B500B5"/>
</linearGradient>
</defs>
</svg>
