<svg width="60" height="61" viewBox="0 0 60 61" fill="none" xmlns="http://www.w3.org/2000/svg">
<path d="M30 0.33667C46.569 0.33667 60 13.7677 60 30.3367C60 37.5366 57.462 44.1486 53.232 49.3206L53.334 49.4286L49.092 53.6706L48.984 53.5686C43.6309 57.9553 36.9209 60.3475 30 60.3366C13.431 60.3366 0 46.9056 0 30.3367C0 13.7677 13.431 0.33667 30 0.33667ZM6 30.3367C5.99994 34.8274 7.25985 39.2281 9.6365 43.0385C12.0131 46.8488 15.4112 49.9159 19.4443 51.891C23.4774 53.8662 27.9837 54.6701 32.451 54.2115C36.9183 53.7529 41.1674 52.05 44.715 49.2966L37.59 42.1686C37.0675 42.2809 36.5345 42.3372 36 42.3366H33V48.3366H27V42.3366H19.5V36.3366H36C36.3748 36.3373 36.7363 36.1977 37.0133 35.9451C37.2903 35.6926 37.4628 35.3455 37.4966 34.9722C37.5305 34.5989 37.4234 34.2264 37.1963 33.9282C36.9693 33.6299 36.6388 33.4274 36.27 33.3607L36 33.3366H24C22.6835 33.3366 21.3902 32.99 20.2501 32.3318C19.1099 31.6735 18.1632 30.7267 17.505 29.5866C16.8467 28.4464 16.5002 27.1531 16.5002 25.8366C16.5002 24.5201 16.8467 23.2268 17.505 22.0867L11.037 15.6187C7.76335 19.8255 5.99035 25.0062 6 30.3367ZM30 6.33667C24.456 6.33667 19.35 8.21766 15.285 11.3767L22.41 18.5017C22.9326 18.3904 23.4656 18.3351 24 18.3367H27V12.3367H33V18.3367H40.5V24.3367H24C23.6252 24.336 23.2637 24.4756 22.9867 24.7282C22.7097 24.9807 22.5372 25.3278 22.5034 25.7011C22.4695 26.0744 22.5766 26.4469 22.8037 26.7451C23.0307 27.0434 23.3612 27.2459 23.73 27.3127L24 27.3367H36C37.3165 27.3367 38.6098 27.6833 39.7499 28.3415C40.8901 28.9998 41.8368 29.9466 42.495 31.0867C43.1533 32.2269 43.4998 33.5202 43.4998 34.8367C43.4998 36.1532 43.1533 37.4465 42.495 38.5866L48.963 45.0516C51.7166 41.5038 53.4194 37.2545 53.8779 32.7869C54.3364 28.3194 53.5322 23.8128 51.5567 19.7796C49.5812 15.7464 46.5137 12.3484 42.7029 9.97197C38.8921 7.59555 34.491 6.33604 30 6.33667Z" fill="white" fill-opacity="0.6"/>
</svg>
