<svg width="99" height="32" viewBox="0 0 99 32" fill="none" xmlns="http://www.w3.org/2000/svg">
<path d="M43.4385 16V0H45.6903H47.9421V16V32H45.6903H43.4385V16ZM36.0691 15.8654V5.68252L38.4232 5.75731L40.7774 5.8321L40.8843 15.9407L40.9913 26.0487H38.5303H36.0692L36.0691 15.8654ZM50.4963 15.9402L50.6033 5.8316L52.9574 5.75681L55.3115 5.68202V15.8649V26.0477H52.8505H50.3894L50.4963 15.9402ZM21.7397 16V8.68208H23.9915H26.2432V16V23.3179H23.9915H21.7397V16ZM57.768 16V10.1584H60.232H62.696L62.5861 15.9257L62.4762 21.693L60.1221 21.7678L57.768 21.8426V16ZM79.4668 16V10.1584H81.9308H84.3948L84.285 15.9257L84.175 21.693L81.8209 21.7678L79.4668 21.8426L79.4668 16ZM14.3703 16V11.6592H16.8268H19.2832V16V20.3413H16.8268H14.3703V16ZM28.6997 16V11.6592H31.1562H33.6127V16V20.3413H31.1562H28.6997V16ZM65.1374 16V11.6592H67.3891H69.6409V16V20.3413H67.3891H65.1374V16ZM86.8362 16V12.4031H89.088H91.3398V16V19.5969H89.088H86.8362V16ZM7.00088 16V13.1475H9.45736H11.9138V16V18.8525H9.45736H7.00088V16ZM72.0974 16V13.1475H74.5539H77.0103V16V18.8525H74.5539H72.0974V16ZM0.122804 15.9402L0.245583 14.5137H2.29265H4.3397L4.46248 15.9402L4.58526 17.3667H2.29263H0L0.122804 15.9402ZM93.8781 15.9402L94.0009 14.5137H96.2527H98.5044L98.6272 15.9402L98.75 17.3667H96.2526H93.7553L93.8781 15.9402Z" fill="#6F6F70" fill-opacity="0.6"/>
</svg>
